<svg width="40" height="41" viewBox="0 0 40 41" fill="none" xmlns="http://www.w3.org/2000/svg">
<path d="M8.54248 8.5H10.6305C11.9265 8.5 12.9465 9.616 12.8385 10.9L11.8425 22.852C11.6745 24.808 13.2225 26.488 15.1905 26.488H27.9705C29.6985 26.488 31.2105 25.072 31.3425 23.356L31.9905 14.356C32.1345 12.364 30.6225 10.744 28.6185 10.744H13.1265" stroke="#000001" stroke-width="1.5" stroke-miterlimit="10" stroke-linecap="round" stroke-linejoin="round"/>
<path d="M25.6425 32.5C26.4709 32.5 27.1425 31.8284 27.1425 31C27.1425 30.1716 26.4709 29.5 25.6425 29.5C24.8141 29.5 24.1425 30.1716 24.1425 31C24.1425 31.8284 24.8141 32.5 25.6425 32.5Z" stroke="#000001" stroke-width="1.5" stroke-miterlimit="10" stroke-linecap="round" stroke-linejoin="round"/>
<path d="M16.0425 32.5C16.8709 32.5 17.5425 31.8284 17.5425 31C17.5425 30.1716 16.8709 29.5 16.0425 29.5C15.2141 29.5 14.5425 30.1716 14.5425 31C14.5425 31.8284 15.2141 32.5 16.0425 32.5Z" stroke="#000001" stroke-width="1.5" stroke-miterlimit="10" stroke-linecap="round" stroke-linejoin="round"/>
<path d="M16.9425 15.7H31.3425" stroke="#000001" stroke-width="1.5" stroke-miterlimit="10" stroke-linecap="round" stroke-linejoin="round"/>
</svg>
