<svg width="140" height="19" viewBox="0 0 140 19" fill="none" xmlns="http://www.w3.org/2000/svg">
<path d="M18.264 9.6C18.264 11.84 17.528 13.776 16.056 15.408L17.832 17.232L15.888 18.984L14.04 17.088C12.632 17.904 11.136 18.312 9.552 18.312C7.136 18.312 5.08 17.472 3.384 15.792C1.688 14.096 0.84 12.032 0.84 9.6C0.84 7.168 1.688 5.112 3.384 3.432C5.08 1.736 7.136 0.887999 9.552 0.887999C11.968 0.887999 14.024 1.736 15.72 3.432C17.416 5.112 18.264 7.168 18.264 9.6ZM9.552 15.624C10.448 15.624 11.288 15.44 12.072 15.072L9 11.928L10.944 10.176L14.16 13.464C15.056 12.36 15.504 11.072 15.504 9.6C15.504 7.888 14.928 6.456 13.776 5.304C12.624 4.152 11.216 3.576 9.552 3.576C7.888 3.576 6.48 4.152 5.328 5.304C4.176 6.456 3.6 7.888 3.6 9.6C3.6 11.312 4.176 12.744 5.328 13.896C6.48 15.048 7.888 15.624 9.552 15.624ZM31.5341 16.728C30.3501 17.784 28.8221 18.312 26.9501 18.312C25.0781 18.312 23.5501 17.784 22.3661 16.728C21.1821 15.656 20.5901 14.224 20.5901 12.432V1.2H23.3501V12.264C23.3501 13.288 23.6461 14.104 24.2381 14.712C24.8461 15.32 25.7501 15.624 26.9501 15.624C28.1501 15.624 29.0461 15.32 29.6381 14.712C30.2461 14.104 30.5501 13.288 30.5501 12.264V1.2H33.3101V12.432C33.3101 14.224 32.7181 15.656 31.5341 16.728ZM36.4847 1.2H39.2447V18H36.4847V1.2ZM50.5459 18.312C48.0179 18.312 45.9219 17.48 44.2579 15.816C42.5939 14.136 41.7619 12.064 41.7619 9.6C41.7619 7.136 42.5939 5.072 44.2579 3.408C45.9219 1.728 48.0179 0.887999 50.5459 0.887999C52.0659 0.887999 53.4659 1.248 54.7459 1.968C56.0419 2.688 57.0499 3.664 57.7699 4.896L55.3699 6.288C54.9219 5.456 54.2659 4.8 53.4019 4.32C52.5539 3.824 51.6019 3.576 50.5459 3.576C48.7539 3.576 47.2979 4.144 46.1779 5.28C45.0739 6.416 44.5219 7.856 44.5219 9.6C44.5219 11.344 45.0739 12.784 46.1779 13.92C47.2979 15.056 48.7539 15.624 50.5459 15.624C51.6019 15.624 52.5619 15.384 53.4259 14.904C54.2899 14.408 54.9379 13.744 55.3699 12.912L57.7699 14.28C57.0659 15.512 56.0659 16.496 54.7699 17.232C53.4899 17.952 52.0819 18.312 50.5459 18.312ZM72.7348 18H69.4468L62.8228 10.008V18H60.0628V1.2H62.8228V8.736L69.2068 1.2H72.4948L65.7028 9.384L72.7348 18ZM84.3638 3.84H77.2838V8.544H84.1238V11.184H77.2838V18H74.5238V1.2H84.3638V3.84ZM100.986 15.792C99.3056 17.472 97.2496 18.312 94.8176 18.312C92.3856 18.312 90.3216 17.472 88.6256 15.792C86.9456 14.096 86.1056 12.032 86.1056 9.6C86.1056 7.168 86.9456 5.112 88.6256 3.432C90.3216 1.736 92.3856 0.887999 94.8176 0.887999C97.2496 0.887999 99.3056 1.736 100.986 3.432C102.682 5.112 103.53 7.168 103.53 9.6C103.53 12.032 102.682 14.096 100.986 15.792ZM90.5696 13.92C91.7216 15.056 93.1376 15.624 94.8176 15.624C96.4976 15.624 97.9056 15.056 99.0416 13.92C100.194 12.768 100.77 11.328 100.77 9.6C100.77 7.872 100.194 6.44 99.0416 5.304C97.9056 4.152 96.4976 3.576 94.8176 3.576C93.1376 3.576 91.7216 4.152 90.5696 5.304C89.4336 6.44 88.8656 7.872 88.8656 9.6C88.8656 11.328 89.4336 12.768 90.5696 13.92ZM120.087 15.792C118.407 17.472 116.351 18.312 113.919 18.312C111.487 18.312 109.423 17.472 107.727 15.792C106.047 14.096 105.207 12.032 105.207 9.6C105.207 7.168 106.047 5.112 107.727 3.432C109.423 1.736 111.487 0.887999 113.919 0.887999C116.351 0.887999 118.407 1.736 120.087 3.432C121.783 5.112 122.631 7.168 122.631 9.6C122.631 12.032 121.783 14.096 120.087 15.792ZM109.671 13.92C110.823 15.056 112.239 15.624 113.919 15.624C115.599 15.624 117.007 15.056 118.143 13.92C119.295 12.768 119.871 11.328 119.871 9.6C119.871 7.872 119.295 6.44 118.143 5.304C117.007 4.152 115.599 3.576 113.919 3.576C112.239 3.576 110.823 4.152 109.671 5.304C108.535 6.44 107.967 7.872 107.967 9.6C107.967 11.328 108.535 12.768 109.671 13.92ZM131.749 1.2C134.053 1.2 135.965 2.008 137.485 3.624C139.021 5.24 139.789 7.232 139.789 9.6C139.789 11.952 139.021 13.944 137.485 15.576C135.965 17.192 134.053 18 131.749 18H125.149V1.2H131.749ZM131.749 15.36C133.333 15.36 134.621 14.816 135.613 13.728C136.621 12.64 137.125 11.264 137.125 9.6C137.125 7.92 136.621 6.544 135.613 5.472C134.621 4.384 133.333 3.84 131.749 3.84H127.909V15.36H131.749Z" fill="#00A000"/>
</svg>
